<?xml version="1.0" encoding="UTF-8"?>
<svg width="186px" height="42px" viewBox="0 0 186 42" version="1.1" xmlns="http://www.w3.org/2000/svg" xmlns:xlink="http://www.w3.org/1999/xlink">
    <!-- Generator: Sketch 53.2 (72643) - https://sketchapp.com -->
    <title>ic_logo_color</title>
    <desc>Created with Sketch.</desc>
    <g id="Page-1" stroke="none" stroke-width="1" fill="none" fill-rule="evenodd">
        <g id="OpenAPI_col_2" transform="translate(-707.000000, -160.000000)">
            <g id="title" transform="translate(576.000000, 160.000000)">
                <g id="ic_logo_color" transform="translate(131.000000, 0.000000)">
                    <path d="M29.6499892,19.3039461 C29.6499892,20.5312402 30.4380376,24.810523 35.2516847,24.8328375 C40.0660804,24.810523 40.8548776,20.5312402 40.8548776,19.3039461 L40.8548776,10.6502505 C40.8548776,9.42569684 40.0660804,5.13819292 35.2516847,5.11940182 C30.4380376,5.13819292 29.6499892,9.42569684 29.6499892,10.6502505 L29.6499892,19.3039461 Z M24,10.913326 C24,10.3758221 24.0565298,7.70317883 25.4443187,5.16951143 C26.774829,2.75485437 29.5350577,0.0234888819 35.2179914,0.00234888819 L35.2179914,0 L35.2516847,0 L35.2797624,0 L35.2797624,0.00234888819 C40.964568,0.0234888819 43.725171,2.75485437 45.0504401,5.16951143 C46.4427214,7.70317883 46.5,10.3758221 46.5,10.913326 L46.5,19.085108 C46.5,19.6253523 46.4427214,22.2987786 45.0504401,24.8328375 C43.725171,27.2482775 40.964568,29.979643 35.2797624,30 L35.2516847,30 L35.2179914,30 C29.5350577,29.979643 26.774829,27.2482775 25.4443187,24.8328375 C24.0565298,22.2987786 24,19.6253523 24,19.085108 L24,10.913326 Z" id="Fill-1" fill="#521110"></path>
                    <path d="M22.5,24.1179157 C22.5,23.9534914 22.4065015,23.8180371 22.26724,23.7538333 L22.26724,23.748744 L22.2577718,23.7424802 C22.2506707,23.7424802 22.244753,23.7401313 22.2412025,23.7354334 L17.7485403,21.5035691 C17.7485403,21.5035691 17.7485403,21.5067009 17.7438062,21.5067009 C17.687786,21.4749905 17.6266372,21.4542418 17.5572037,21.4542418 C17.3946662,21.4542418 17.2652675,21.5462411 17.1954395,21.6715167 L17.1907054,21.6715167 C17.1855768,21.6801295 17.1812372,21.6922655 17.172558,21.7024442 L17.172558,21.7118399 C16.4581032,23.2288499 14.9487139,24.819851 11.8585293,24.83277 C6.78672874,24.8108468 5.95392141,20.5311166 5.95392141,19.3038066 L5.95392141,10.649998 C5.95392141,9.42542835 6.78672874,5.13825997 11.8585293,5.11907714 C14.9925043,5.13199619 16.4991321,6.76801816 17.2005681,8.30812595 C17.2605334,8.46158865 17.4088685,8.57433676 17.5895534,8.57433676 C17.6562253,8.57433676 17.7142181,8.55515392 17.7765504,8.52461797 C17.78089,8.52696689 17.78089,8.5210946 17.78089,8.52461797 L22.2577718,6.20858399 L22.2577718,6.20310318 C22.3883541,6.13185264 22.475935,6.00227062 22.475935,5.84411009 C22.475935,5.78342968 22.4629162,5.73097049 22.4455578,5.67811982 C22.3638946,5.50978064 22.2818368,5.34026699 22.1851823,5.16957889 C20.7866498,2.75449883 17.8775446,0.023097702 11.8861449,0.00195743237 L11.8861449,0 L11.8537952,0 L11.8214455,0 L11.8214455,0.00195743237 C5.83477986,0.023097702 2.9252801,2.75449883 1.52753669,5.16957889 C0.0599652833,7.70288787 0,10.3759575 0,10.9134684 L0,19.0853571 C0,19.6252169 0.0599652833,22.2990696 1.52753669,24.83277 C2.9252801,27.2482416 5.83477986,29.9796427 11.8214455,30 L11.8537952,30 L11.8861449,30 C17.8775446,29.9796427 20.7866498,27.2482416 22.1851823,24.83277 C22.2853874,24.6538607 22.3638946,24.4804322 22.4589711,24.3050463 L22.453448,24.3007399 C22.4810636,24.2435829 22.5,24.1836855 22.5,24.1179157" id="Fill-3" fill="#521110"></path>
                    <path d="M73.4962614,29.0457986 L73.4962614,1.91521575 L73.4962614,1.90234671 C73.4962614,1.68319455 73.3201735,1.50757002 73.1063257,1.50454201 C73.1089427,1.50340651 73.1089427,1.50189251 73.1089427,1.5 L68.254748,1.5 L68.254748,1.50454201 L68.254748,1.50340651 C68.0349185,1.50340651 67.857709,1.68016654 67.857709,1.90234671 C67.857709,1.90991673 67.8618214,1.92013626 67.8618214,1.93073429 L67.8618214,11.5317941 L67.8491102,11.5317941 L67.8491102,19.6809235 C67.8491102,20.8686601 67.0655002,25.009084 62.2584118,25.0264951 C57.4475849,25.009084 56.6594886,20.8686601 56.6594886,19.6809235 L56.6594886,1.95079485 L56.6658442,1.95079485 C56.6658442,1.72785768 56.4837745,1.54844815 56.2654404,1.54844815 C56.2617018,1.54844815 56.2617018,1.54920515 56.2549723,1.54920515 L56.2549723,1.54239213 L51.4056378,1.54920515 C51.399656,1.54920515 51.399656,1.54844815 51.3966652,1.54844815 C51.1805742,1.54844815 51.0044863,1.72293717 51.0044863,1.94095382 L51,1.94095382 L51,19.4473883 C51,19.9693414 51.0530881,22.5545042 52.305892,25.0041635 C53.4985046,27.3395155 55.9828025,29.9803179 61.0897263,30 L61.120009,30 L61.1502916,30 C64.5228802,29.989402 66.7495888,28.5942468 68.2184836,27.1373959 L68.2184836,29.0734292 L68.2237177,29.0734292 C68.2323164,29.2910674 68.4035442,29.4636639 68.6147749,29.4636639 C68.6222521,29.4636639 68.6274862,29.4598789 68.6364588,29.4598789 L68.6364588,29.4636639 L73.1063257,29.4636639 C73.3201735,29.4636639 73.5,29.2831188 73.5,29.0624527 C73.5,29.0563967 73.4962614,29.0510977 73.4962614,29.0457986" id="Fill-6" fill="#521110"></path>
                    <path d="M122.0866,19.8303598 C122.0866,20.9784757 121.295518,25.0017675 116.451542,25.0209223 C111.60718,25.0017675 110.816098,20.9784757 110.816098,19.8303598 L110.816098,19.3612625 C110.816098,18.2108012 111.60718,14.1894639 116.451542,14.1714818 C121.295518,14.1894639 122.0866,18.2108012 122.0866,19.3612625 L122.0866,19.8303598 Z M127.494197,10.6704518 C127.490329,8.37109281 126.354962,2.98546403 121.187203,0.844425432 C115.934728,-1.33140456 108.922916,1.29671348 107.179054,2.05078751 L107.179054,2.05469666 C107.011167,2.10043365 106.883897,2.25406304 106.883897,2.44052925 C106.883897,2.5120666 106.905947,2.57304926 106.934573,2.63129551 C106.929157,2.63129551 106.929157,2.63559557 106.926063,2.63559557 L108.340726,6.70696987 C108.340726,6.70110615 108.349623,6.70110615 108.354652,6.70110615 C108.40997,6.85747194 108.555034,6.96614617 108.72795,6.96614617 C108.783268,6.96614617 108.831236,6.95559148 108.876496,6.93409118 L108.883072,6.93565484 C110.804879,5.9302228 116.020219,4.16289844 119.210852,5.6331278 C122.308645,7.06035656 122.039019,10.3913388 122.056427,10.7490256 L122.056427,10.8666908 L122.056427,11.5668187 C120.553177,10.4605307 118.45768,9.40818892 115.497602,9.39646148 L115.470136,9.39646148 L115.443831,9.39646148 C110.150738,9.41678904 107.589488,11.9929155 106.347741,14.271165 C105.054544,16.661998 105,19.1833964 105,19.6939307 L105,19.7040945 C105,20.2087651 105.054544,22.7328998 106.347741,25.12256 C107.589488,27.4004187 110.150738,29.9753724 115.443831,30 L115.470136,30 L115.497602,30 C118.579534,29.9870998 120.727254,28.8659571 122.237853,27.6834408 L122.237853,29.053987 C122.237853,29.0563324 122.232824,29.0610234 122.232824,29.0625871 C122.232824,29.0680599 122.237853,29.0707963 122.237853,29.0754873 L122.237853,29.0793964 C122.248298,29.3014358 122.424696,29.4769564 122.644032,29.4769564 C122.649448,29.4769564 122.656024,29.4718745 122.670724,29.4718745 L122.670724,29.4808656 L127.071771,29.4808656 L127.071771,29.4718745 C127.074866,29.4718745 127.079121,29.4769564 127.085697,29.4769564 C127.306195,29.4769564 127.479111,29.2986994 127.494197,29.0793964 L127.494197,13.8450683 L127.5,13.8450683 L127.5,10.8666908 C127.5,10.7994535 127.5,10.7361254 127.494197,10.6704518 L127.494197,10.6704518 Z" id="Fill-8" fill="#F89C1C"></path>
                    <path d="M154.5,10.5579675 C154.5,10.034726 154.451708,7.45107938 153.200606,4.99918964 C151.99817,2.66239787 149.515432,0.0227167054 144.397967,0.0053005646 L144.397967,0 C144.388234,0 144.383741,0.0053005646 144.365398,0.0053005646 C144.362403,0.0053005646 144.353418,0 144.340316,0 L144.340316,0.0053005646 C140.974843,0.014008635 138.755278,1.40124211 137.285177,2.84337429 L137.285177,0.949179675 L137.279936,0.949179675 C137.285177,0.940092992 137.285177,0.933277981 137.285177,0.925705746 C137.285177,0.709139821 137.111475,0.533463965 136.901461,0.527784789 C136.901461,0.527027566 136.901461,0.525513119 136.905579,0.523241448 L132.384465,0.523241448 L132.384465,0.527784789 C132.166963,0.533463965 132,0.709139821 132,0.925705746 C132,0.933277981 132.004867,0.940092992 132.004867,0.949179675 L132,0.949179675 L132,28.1297177 L132.004867,28.1297177 C132.021338,28.332275 132.184933,28.4954567 132.391952,28.4954567 C132.399814,28.4954567 132.409173,28.4912919 132.418906,28.4912919 L132.418906,28.5 L137.248116,28.5 L137.248116,28.4954567 C137.456633,28.4954567 137.623596,28.332275 137.637073,28.1259316 L137.642688,28.1259316 L137.642688,28.100186 L137.642688,28.0960213 L137.642688,28.0937496 L137.642688,10.0320757 C137.760611,8.58123547 138.74854,4.99237463 143.229972,4.97420126 C148.0487,4.99351046 148.83223,9.13703753 148.83223,10.3232282 L148.83223,28.0645965 L148.841214,28.0645965 C148.841214,28.0751976 148.83223,28.0789837 148.83223,28.0880704 C148.83223,28.3088011 149.013419,28.4878844 149.2283,28.4878844 L149.241402,28.4878844 L154.108048,28.4878844 L154.111791,28.4878844 L154.125268,28.4878844 L154.125268,28.4840983 C154.340898,28.4742544 154.5,28.3031219 154.5,28.0880704 L154.5,28.0668682 L154.5,28.0645965 L154.5,10.5579675 Z" id="Fill-11" fill="#99C93C"></path>
                    <path d="M176.766782,10.6821914 C176.766782,11.8042097 175.936511,15.8822546 170.862148,15.9005908 C165.782654,15.8822546 164.958697,11.8042097 164.958697,10.6821914 L164.958697,10.316248 C164.958697,9.19149885 165.782654,5.11072304 170.862148,5.09511778 C175.936511,5.11072304 176.766782,9.19149885 176.766782,10.316248 L176.766782,10.6821914 Z M186,0.55320651 C186,0.333562458 185.823607,0.155272349 185.604595,0.145909192 L185.604595,0.140447351 C182.549086,0.0550085457 180.56851,1.30342944 179.291928,2.67825295 C177.578507,1.20472616 174.936949,0.0156052612 170.898847,0.00234078918 L170.898847,0 L170.862148,0 L170.829789,0 L170.829789,0.00234078918 C164.841101,0.0234078918 161.931205,2.61349112 160.527952,4.91175596 C159.067085,7.32120829 159,9.8590139 159,10.3708665 L159,10.6478598 C159,11.1632236 159.067085,13.7021996 160.532293,16.1061901 C161.155786,17.1361373 162.091025,18.2199227 163.466655,19.1117634 C161.211032,20.394906 159.221379,22.6572787 159.221379,26.7446868 L159.221379,28.8892398 L159.221379,28.895872 C159.221379,29.118247 159.394221,29.2945865 159.619547,29.3039496 L159.619547,29.3090213 L159.619547,29.3129226 L176.75376,29.3129226 C178.813654,29.3129226 179.853466,30.6549751 180.143903,31.9162703 C180.509712,33.5154195 179.885825,35.6837705 177.14364,37.1358401 C177.148375,37.1420822 177.148375,37.1452032 177.151927,37.1479342 C176.990135,37.2033328 176.863463,37.3535335 176.863463,37.5341644 C176.863463,37.6121907 176.893848,37.6831946 176.929758,37.7421045 L176.920682,37.7421045 L179.158153,41.7682619 C179.163283,41.7659211 179.168808,41.7682619 179.168808,41.7659211 C179.235103,41.9048079 179.375192,42 179.538168,42 C179.602885,42 179.663261,41.9863454 179.718902,41.9609868 L179.718902,41.964498 C184.905336,39.3471056 186.037094,34.4244259 185.213926,30.7915211 C184.314991,26.8332466 180.91735,24.1764509 176.75376,24.1764509 L164.916078,24.4546147 C165.567194,20.9196329 169.738282,20.9855651 170.239839,21.0062421 L170.233919,20.9968789 C170.433595,21.0035112 170.6238,21.0156053 170.829789,21.0156053 L170.862148,21.0156053 L170.898847,21.0156053 C176.887929,20.9968789 179.793879,18.4044549 181.195159,16.1061901 C182.658394,13.7021996 182.722717,11.1632236 182.722717,10.6478598 L182.722717,10.3708665 C182.722717,9.93352902 182.672206,8.05465557 181.772088,6.02675188 C182.555794,5.48837036 183.776735,4.99095266 185.569474,5.08575463 C185.57342,5.08575463 185.577761,5.09121647 185.582497,5.09121647 C185.805849,5.09121647 185.986583,4.91487702 186,4.70381586 L186,0.573883481 L186,0.571542692 L186,0.55320651 Z" id="Fill-13" fill="#4DB2E5"></path>
                    <path d="M94.8356434,18.8944131 C94.8356434,20.0925338 94.0507553,24.2796423 89.2423343,24.2980101 C84.4316697,24.2796423 83.6482774,20.0925338 83.6482774,18.8944131 L83.6482774,10.4340968 C83.6482774,9.23444542 84.4316697,5.04925026 89.2423343,5.03164772 C94.0507553,5.04925026 94.8356434,9.23444542 94.8356434,10.4340968 L94.8356434,18.8944131 Z M99.1938475,5.0530769 C97.9968839,2.69280592 95.5173256,0.0229598345 90.4078875,0.00229598345 L90.4078875,0 L90.3757292,0 L90.3488059,0 L90.3488059,0.00229598345 C86.9777883,0.0153065563 84.7480181,1.42657105 83.2829436,2.89561779 L83.2829436,0.922985345 L83.2799521,0.922985345 C83.2799521,0.917245387 83.2829436,0.917245387 83.2829436,0.917245387 C83.2829436,0.693004337 83.1030812,0.514300292 82.8865733,0.514300292 C82.8787206,0.514300292 82.8701202,0.520805578 82.8626415,0.520805578 C82.8626415,0.51506562 82.8626415,0.512769636 82.8660069,0.510473653 L78.4180585,0.510473653 C78.4180585,0.512769636 78.4229197,0.51506562 78.4229197,0.520805578 C78.4143192,0.520805578 78.4053448,0.514300292 78.3967443,0.514300292 C78.1776188,0.514300292 78,0.693004337 78,0.917245387 C78,0.917245387 78.0037393,0.917245387 78.0037393,0.922985345 L78,0.922985345 L78,40.1081522 L78.0037393,40.1108308 C78.0138356,40.3255053 78.1806103,40.5 78.3967443,40.5 L78.4143192,40.5 L83.2272274,40.5 L83.2496635,40.5 L83.2657426,40.5 L83.3005185,40.5 L83.3005185,40.4896681 C83.4859899,40.4636469 83.6265892,40.314408 83.6359376,40.1234587 C83.6396769,40.1234587 83.6396769,40.1192494 83.6396769,40.1192494 L83.6396769,40.1008815 C83.6396769,40.0962896 83.6434163,40.0962896 83.6434163,40.0962896 C83.6434163,40.0962896 83.6396769,40.0962896 83.6396769,40.0924629 L83.6396769,26.7719323 C85.1096126,28.0749029 87.2372987,29.313586 90.3488059,29.3243006 L90.3757292,29.3243006 L90.4078875,29.3243006 C95.5173256,29.3040194 97.9968839,26.634556 99.1938475,24.2735197 C100.448023,21.7965362 100.5,19.1833244 100.5,18.6552482 L100.5,10.6675218 C100.5,10.1421242 100.448023,7.52929505 99.1938475,5.0530769 L99.1938475,5.0530769 Z" id="Fill-15" fill="#ED2926"></path>
                </g>
            </g>
        </g>
    </g>
</svg>