<?xml version="1.0" encoding="UTF-8"?>
<svg width="48px" height="44px" viewBox="0 0 48 44" version="1.1" xmlns="http://www.w3.org/2000/svg" xmlns:xlink="http://www.w3.org/1999/xlink">
    <!-- Generator: Sketch 53.2 (72643) - https://sketchapp.com -->
    <title>ic_market</title>
    <desc>Created with Sketch.</desc>
    <g id="Page-1" stroke="none" stroke-width="1" fill="none" fill-rule="evenodd">
        <g id="OpenAPI_col_2" transform="translate(-641.000000, -474.000000)" fill="#FFFFFF" fill-rule="nonzero">
            <g id="Card" transform="translate(525.000000, 396.000000)">
                <g id="Market-Place">
                    <g id="ic" transform="translate(80.000000, 40.000000)">
                        <g id="ic_market" transform="translate(36.000000, 38.000000)">
                            <path d="M19.878,0 L18,7.942 L18,10.138 C18,12.27 16.134,14 14,14 C11.866,14 10,12.27 10,10.136 L10,7.942 L15.992,0 L19.878,0 Z M13.774,0 L8,7.942 L8,10.138 C8,12.27 6.134,14 4,14 C1.866,14 0,12.27 0,10.136 L0,7.942 L9.748,0 L13.774,0 Z M48,10.136 C48,12.27 46.134,14 44,14 C41.866,14 40,12.134 40,10 L40,7.804 L34.226,0 L38.254,0 L48,7.942 L48,10.136 Z M28,7.8 L28,9.996 C28,12.128 26.134,14 24,14 C21.866,14 20,12.134 20,10 L20,7.804 L22.094,0 L25.904,0 L28,7.8 Z M32.008,0 L37.994,8.004 L37.994,10.2 C37.996,12.334 36.134,14 34,14 C31.866,14 30,12.134 30,10 L30,7.804 L28.122,0 L32.008,0 Z M2,18 L2,44 L26,44 L26,40 L6,40 L6,22 L42,22 L42,44 L46,44 L46,18 L2,18 Z M38,28 L30,28 L30,44 L38,44 L38,28 Z" id="Shape"></path>
                        </g>
                    </g>
                </g>
            </g>
        </g>
    </g>
</svg>