<svg id="Layer_1" data-name="Layer 1" xmlns="http://www.w3.org/2000/svg" viewBox="0 0 509.65 56.7"><defs><style>.cls-1{fill:#fff;}.cls-2{fill:#ea991b;}.cls-3{fill:#93ba2f;}.cls-4{fill:#4da4e0;}.cls-5{fill:#d83128;}.cls-6{isolation:isolate;}</style></defs><title>COUPANG_Developers_BI_beta</title><g id="Layer_1-2" data-name="Layer 1"><path class="cls-1" d="M34,16.6a16.9,16.9,0,0,1,2-7.7c1.9-3.2,5.8-6.9,13.7-7h0c8,0,11.9,3.7,13.7,7a15.61,15.61,0,0,1,2,7.7v11a16.9,16.9,0,0,1-2,7.7c-1.9,3.2-5.7,6.9-13.7,7h0c-8,0-11.9-3.7-13.7-7a15.61,15.61,0,0,1-2-7.7Zm7.9,11.3a7.41,7.41,0,0,0,7.9,7.4,7.47,7.47,0,0,0,7.9-7.4V16.2a7.47,7.47,0,0,0-7.9-7.4,7.47,7.47,0,0,0-7.9,7.4Z" transform="translate(-2 -1.8)"/><path class="cls-1" d="M31.6,34.3a.55.55,0,0,0-.3-.5h0l-6-3h0a.35.35,0,0,1-.2-.1.55.55,0,0,0-.5.3h0a7.36,7.36,0,0,1-7.1,4.2,7.47,7.47,0,0,1-7.9-7.4V16.2a7.47,7.47,0,0,1,7.9-7.4c4.2,0,6.2,2.2,7.1,4.3a.66.66,0,0,0,.5.4.37.37,0,0,0,.3-.1h0l6-3.1h0a.55.55,0,0,0,.3-.5V9.6h0c-.1-.2-.2-.5-.3-.7-1.9-3.2-5.7-6.9-13.7-7h0c-8,0-11.9,3.7-13.7,7a15.61,15.61,0,0,0-2,7.7v11a16.9,16.9,0,0,0,2,7.7c1.9,3.2,5.7,6.9,13.7,7h0c8,0,11.9-3.7,13.7-7a2.51,2.51,0,0,1,.4-.7h0C31.6,34.5,31.6,34.4,31.6,34.3Z" transform="translate(-2 -1.8)"/><path class="cls-1" d="M102.5,40.9V3.2h0a.63.63,0,0,0-.5-.6H95.2a.58.58,0,0,0-.6.6h0V16.6h0V27.9a7.41,7.41,0,0,1-7.9,7.4,7.47,7.47,0,0,1-7.9-7.4V3.2h0a.65.65,0,0,0-.6-.6H71.4a.56.56,0,0,0-.6.5h0V27.5a18.62,18.62,0,0,0,1.8,7.7c1.7,3.2,5.2,6.9,12.4,7h0a13.87,13.87,0,0,0,10-4V41h0a.56.56,0,0,0,.6.5h6.3a.53.53,0,0,0,.6-.6Z" transform="translate(-2 -1.8)"/><path class="cls-2" d="M174.9,16.2c0-3.1-1.5-10.4-8.6-13.2s-16.7.6-19.1,1.6h0a.66.66,0,0,0-.4.5.37.37,0,0,0,.1.3h0l1.9,5.5h0a.66.66,0,0,0,.5.4h.2c2.6-1.4,9.7-3.7,14.1-1.8,4.2,1.9,3.8,6.4,3.9,6.9v1.1a14.48,14.48,0,0,0-8.9-2.9h0c-7.2,0-10.7,3.5-12.4,6.6a15.32,15.32,0,0,0-1.8,7.3h0a16.71,16.71,0,0,0,1.8,7.3c1.7,3.1,5.2,6.5,12.4,6.6h0a14.6,14.6,0,0,0,9.2-3.1V41h0a.56.56,0,0,0,.6.5h6a.63.63,0,0,0,.6-.5h0V20.5h0v-4A.37.37,0,0,1,174.9,16.2Zm-7.3,12.3c0,1.5-1.1,7-7.7,7s-7.7-5.4-7.7-7v-.6c0-1.5,1.1-7,7.7-7s7.7,5.4,7.7,7Z" transform="translate(-2 -1.8)"/><path class="cls-3" d="M212.8,16.6A18.62,18.62,0,0,0,211,8.9C209.3,5.6,205.8,2,198.6,2h0a13.58,13.58,0,0,0-9.9,3.9V3.2h0a.63.63,0,0,0-.5-.6h-6.4a.56.56,0,0,0-.5.6h0V41h0a.54.54,0,0,0,.5.5h6.8a.47.47,0,0,0,.5-.5h0V15.8a7.94,7.94,0,0,1,15.8.4V40.9h0a.65.65,0,0,0,.6.6h6.8a.56.56,0,0,0,.5-.6h0V16.6Z" transform="translate(-2 -1.8)"/><path class="cls-4" d="M254,2.6a.63.63,0,0,0-.5-.6h0a10.64,10.64,0,0,0-8.4,3.4c-2.3-2-5.8-3.6-11.2-3.6h0c-8,0-11.9,3.5-13.7,6.6a15.74,15.74,0,0,0-2,7.4v.4a15.74,15.74,0,0,0,2,7.4,12.48,12.48,0,0,0,3.9,4.1c-3,1.7-5.7,4.8-5.7,10.3v2.9h0a.63.63,0,0,0,.5.6h22.9a4.42,4.42,0,0,1,4.5,3.5c.5,2.2-.3,5.1-4,7h0a.66.66,0,0,0-.4.5.37.37,0,0,0,.1.3h0l3,5.4h0a.55.55,0,0,0,.5.3c.1,0,.2,0,.2-.1h0A13.38,13.38,0,0,0,253,43.3a11.31,11.31,0,0,0-11.3-8.9l-15.8.4c.9-4.8,6.4-4.7,7.1-4.7h.8c8,0,11.9-3.5,13.7-6.6a14.34,14.34,0,0,0,2-7.4v-.4a16,16,0,0,0-1.3-5.9,8.23,8.23,0,0,1,5.1-1.3h0a.63.63,0,0,0,.6-.5h0V2.6ZM241.7,16.3c0,1.5-1.1,7-7.9,7s-7.9-5.5-7.9-7v-.5c0-1.5,1.1-7,7.9-7s7.9,5.5,7.9,7Z" transform="translate(-2 -1.8)"/><path class="cls-5" d="M138.4,8.9c-1.7-3.2-5.2-6.9-12.4-7h0a14.06,14.06,0,0,0-10,4V3.2h0a.65.65,0,0,0-.6-.6h-6.3a.58.58,0,0,0-.6.6h0V57.1h0c0,.3.2.5.6.5h6.8a.47.47,0,0,0,.5-.5h0V38.7a14,14,0,0,0,9.4,3.5h0c7.2,0,10.7-3.7,12.4-7a17,17,0,0,0,1.8-7.7v-11A13.53,13.53,0,0,0,138.4,8.9Zm-6.1,19a7.92,7.92,0,0,1-15.8,0V16.3a7.92,7.92,0,0,1,15.8,0Z" transform="translate(-2 -1.8)"/><path class="cls-4" d="M272.7,30.9c0-6.9,4.2-11.2,8.9-11.2a7.79,7.79,0,0,1,5.6,2.4l-.2-3.5V10.7h4.3V41.6h-3.5l-.4-2.4h-.1a8.61,8.61,0,0,1-6,2.9C276.1,42,272.7,38,272.7,30.9Zm14.2,4.8V25.3a6.37,6.37,0,0,0-4.5-1.9c-2.9,0-5.2,2.8-5.2,7.4,0,4.8,1.8,7.5,5.1,7.5C284,38.3,285.4,37.5,286.9,35.7Z" transform="translate(-2 -1.8)"/><path class="cls-4" d="M295.4,30.9c0-6.9,4.6-11.2,9.4-11.2,5.5,0,8.4,4.1,8.4,10.1A11.79,11.79,0,0,1,313,32H299.6c.3,4.1,2.8,6.5,6.4,6.5a8.68,8.68,0,0,0,4.9-1.6l1.5,2.8a12.39,12.39,0,0,1-7,2.2C299.8,42,295.4,37.9,295.4,30.9ZM309.5,29c0-3.7-1.6-5.8-4.6-5.8-2.6,0-4.9,2.1-5.3,5.8Z" transform="translate(-2 -1.8)"/><path class="cls-4" d="M315,20.2h4.4l3.5,11.5c.6,2.1,1.2,4.3,1.8,6.3h.2c.6-2.1,1.2-4.3,1.8-6.3l3.5-11.5h4.2l-7.1,21.3h-5Z" transform="translate(-2 -1.8)"/><path class="cls-4" d="M336.6,30.9c0-6.9,4.6-11.2,9.4-11.2,5.5,0,8.4,4.1,8.4,10.1a11.79,11.79,0,0,1-.2,2.2H340.8c.3,4.1,2.8,6.5,6.4,6.5a8.68,8.68,0,0,0,4.9-1.6l1.5,2.8a12.39,12.39,0,0,1-7,2.2C341,42,336.6,37.9,336.6,30.9ZM350.7,29c0-3.7-1.6-5.8-4.6-5.8-2.6,0-4.9,2.1-5.3,5.8Z" transform="translate(-2 -1.8)"/><path class="cls-4" d="M358.3,36.5V10.7h4.3V36.8c0,1.2.5,1.6,1.1,1.6a2.25,2.25,0,0,0,.7-.1l.6,3.4a6.71,6.71,0,0,1-2.3.3C359.5,42,358.3,40,358.3,36.5Z" transform="translate(-2 -1.8)"/><path class="cls-4" d="M367.1,30.9c0-7.1,4.6-11.2,9.7-11.2s9.7,4.1,9.7,11.2S381.9,42,376.8,42,367.1,38,367.1,30.9Zm15,0c0-4.5-2-7.5-5.3-7.5s-5.3,3-5.3,7.5,2,7.5,5.3,7.5S382.1,35.4,382.1,30.9Z" transform="translate(-2 -1.8)"/><path class="cls-4" d="M390.7,20.2h3.5l.3,2.3h.1c1.8-1.5,4.1-2.9,6.3-2.9,5.3,0,8.2,4.3,8.2,10.8,0,7.3-4.2,11.5-8.9,11.5a8.48,8.48,0,0,1-5.4-2.4l.1,3.6V50h-4.3V20.2Zm14,10.4c0-4.5-1.4-7.2-4.8-7.2-1.6,0-3.2.9-4.9,2.6V36.4a6.9,6.9,0,0,0,4.5,1.9C402.5,38.3,404.7,35.6,404.7,30.6Z" transform="translate(-2 -1.8)"/><path class="cls-4" d="M411.9,30.9c0-6.9,4.6-11.2,9.4-11.2,5.5,0,8.4,4.1,8.4,10.1a11.79,11.79,0,0,1-.2,2.2H416.1c.3,4.1,2.8,6.5,6.4,6.5a8.68,8.68,0,0,0,4.9-1.6l1.5,2.8a12.39,12.39,0,0,1-7,2.2C416.4,42,411.9,37.9,411.9,30.9ZM426.1,29c0-3.7-1.6-5.8-4.6-5.8-2.6,0-4.9,2.1-5.3,5.8Z" transform="translate(-2 -1.8)"/><path class="cls-4" d="M433.7,20.2h3.5l.3,3.8h.1c1.5-2.7,3.6-4.4,5.9-4.4a4.9,4.9,0,0,1,2.3.5L445,24a6.65,6.65,0,0,0-2.1-.3c-1.7,0-3.7,1.2-5,4.6V41.6h-4.3V20.2Z" transform="translate(-2 -1.8)"/><path class="cls-4" d="M446.7,39.1l2-2.9a8.87,8.87,0,0,0,5.9,2.4c2.5,0,3.6-1.2,3.6-2.9,0-1.9-2.3-2.8-4.6-3.7-2.7-1.1-5.9-2.6-5.9-6.2s2.8-6.2,7.3-6.2a10.9,10.9,0,0,1,6.7,2.5l-2,2.7a7.51,7.51,0,0,0-4.6-1.9c-2.3,0-3.3,1.2-3.3,2.6,0,1.8,2.1,2.5,4.4,3.4,2.9,1.1,6.1,2.4,6.1,6.5,0,3.6-2.7,6.5-7.8,6.5A11.83,11.83,0,0,1,446.7,39.1Z" transform="translate(-2 -1.8)"/><g class="cls-6"><path class="cls-4" d="M470.84,28.32l3.44-16.2A4.92,4.92,0,0,1,481.74,9a2.59,2.59,0,0,1,1,2.16q0,2.82-3.32,3.76V15a3.32,3.32,0,0,1,2.3,3.28,5.59,5.59,0,0,1-1.35,3.91,4.6,4.6,0,0,1-3.57,1.48,4.31,4.31,0,0,1-2.9-.9l-1.18,5.53Zm7.39-12.76a3.66,3.66,0,0,1-1.26.28q-.69,0-.69-.57,0-.82,1.22-.82a3.58,3.58,0,0,1,1.13.17,3.07,3.07,0,0,0,1.61-1.25,3.66,3.66,0,0,0,.6-2.08,2.26,2.26,0,0,0-.53-1.57,1.81,1.81,0,0,0-1.42-.59,2.31,2.31,0,0,0-1.75.67,4.92,4.92,0,0,0-1,2.39l-2,9.38a3.65,3.65,0,0,0,2.56,1.08A2.62,2.62,0,0,0,479,21.49a5.48,5.48,0,0,0,.82-3.19A2.6,2.6,0,0,0,478.24,15.56Z" transform="translate(-2 -1.8)"/><path class="cls-4" d="M491,21a.54.54,0,0,1,.21.5,1.92,1.92,0,0,1-.94,1.5,4.14,4.14,0,0,1-2.52.7,3.76,3.76,0,0,1-2.82-1.1,4.15,4.15,0,0,1-1.07-3,7.66,7.66,0,0,1,1.69-4.8,5.19,5.19,0,0,1,4.27-2.18,2.91,2.91,0,0,1,2,.61,2.12,2.12,0,0,1,.7,1.69,3.44,3.44,0,0,1-1.68,2.82,6.91,6.91,0,0,1-4.12,1.2h-.34l-.36,0a6.64,6.64,0,0,0,0,.84q0,2.71,2.2,2.71A3.59,3.59,0,0,0,491,21Zm-4.85-3h.2a4.73,4.73,0,0,0,2.92-.86,2.66,2.66,0,0,0,1.15-2.23q0-1.34-1.16-1.34a2.3,2.3,0,0,0-1.81,1.22A9.16,9.16,0,0,0,486.11,18Z" transform="translate(-2 -1.8)"/><path class="cls-4" d="M498.82,22l.34.74a4.64,4.64,0,0,1-2.7,1q-2.18,0-2.18-2.33a8.18,8.18,0,0,1,.2-1.68l1.22-5.76h-1.52l.19-.8q2,0,3.06-2.8h.92l-.52,2.46h2.42L500,13.92h-2.42l-1.21,5.7a9.24,9.24,0,0,0-.24,1.72,1,1,0,0,0,1.06,1.09A3.43,3.43,0,0,0,498.82,22Z" transform="translate(-2 -1.8)"/><path class="cls-4" d="M507.47,20.48h-.13q-1.44,3.21-3.74,3.21a2.19,2.19,0,0,1-1.9-1A4.61,4.61,0,0,1,501,20a8.5,8.5,0,0,1,1.71-5.11A5.1,5.1,0,0,1,507,12.58a3.86,3.86,0,0,1,2.34.72l.88-.51h.64l-1.37,6.41a11.21,11.21,0,0,0-.29,2.22q0,1,.65,1a3.07,3.07,0,0,0,1.45-.52l.36.59a4.46,4.46,0,0,1-2.82,1.19q-1.56,0-1.56-1.66A7.33,7.33,0,0,1,507.47,20.48Zm1.13-6.28a1.66,1.66,0,0,0-1.51-.72q-1.71,0-2.87,2.17a9.39,9.39,0,0,0-1.16,4.47q0,2.31,1.26,2.31,1,0,2.09-1.47a8,8,0,0,0,1.45-3.22Z" transform="translate(-2 -1.8)"/></g></g></svg>